<?xml version="1.0" encoding="utf-8"?>
<!-- Generator: Adobe Illustrator 14.0.0, SVG Export Plug-In . SVG Version: 6.00 Build 43363)  -->
<!DOCTYPE svg PUBLIC "-//W3C//DTD SVG 1.1//EN" "http://www.w3.org/Graphics/SVG/1.1/DTD/svg11.dtd">
<svg version="1.1" id="Ebene_1" xmlns="http://www.w3.org/2000/svg" xmlns:xlink="http://www.w3.org/1999/xlink" x="0px" y="0px"
	 width="269.521px" height="70px" viewBox="0 0 269.521 70" enable-background="new 0 0 269.521 70" xml:space="preserve">
<g>
	<g>
		<g>
			<path fill="#0054A5" d="M69.501,61.195h12.835c0.347,0,0.677-0.054,0.992-0.162c0.313-0.108,0.595-0.309,0.844-0.602
				c0.249-0.292,0.45-0.687,0.601-1.184s0.227-1.147,0.227-1.948c0-0.367-0.032-0.729-0.098-1.086
				c-0.065-0.357-0.194-0.693-0.389-1.006c-0.196-0.314-0.482-0.611-0.861-0.894c-0.379-0.281-0.883-0.529-1.511-0.746l-9.065-3.116
				c-0.564-0.193-1.094-0.434-1.593-0.715c-0.498-0.282-0.899-0.608-1.202-0.978c-0.477-0.541-0.786-1.132-0.926-1.772
				c-0.141-0.64-0.211-1.275-0.211-1.903c0-0.585,0.081-1.242,0.243-1.969c0.163-0.727,0.59-1.384,1.284-1.97
				c0.325-0.28,0.78-0.54,1.364-0.78c0.585-0.239,1.332-0.357,2.243-0.357h11.535v1.561h-11.73c-0.413,0-0.84,0.071-1.284,0.213
				c-0.444,0.14-0.807,0.361-1.088,0.666c-0.347,0.368-0.547,0.813-0.601,1.333c-0.054,0.521-0.081,0.977-0.081,1.366
				c0,0.368,0.016,0.727,0.048,1.072c0.032,0.349,0.125,0.674,0.276,0.977c0.152,0.306,0.384,0.592,0.699,0.862
				c0.314,0.271,0.742,0.504,1.284,0.7l8.838,3.117c0.693,0.238,1.321,0.487,1.884,0.746c0.564,0.262,1.04,0.575,1.43,0.942
				c0.564,0.543,0.938,1.147,1.122,1.82c0.184,0.671,0.276,1.289,0.276,1.85c0,0.044-0.005,0.213-0.017,0.506
				c-0.011,0.291-0.048,0.638-0.113,1.039c-0.065,0.399-0.174,0.823-0.325,1.266c-0.152,0.445-0.368,0.85-0.649,1.218
				c-0.26,0.347-0.542,0.617-0.845,0.813c-0.303,0.195-0.612,0.34-0.925,0.438c-0.315,0.099-0.634,0.165-0.959,0.195
				c-0.325,0.033-0.628,0.049-0.909,0.049H69.501V61.195z"/>
			<path fill="#0054A5" d="M103.254,39.805c0.727,0.042,1.458,0.146,2.194,0.307c0.737,0.163,1.458,0.407,2.162,0.732
				c0.704,0.326,1.349,0.781,1.934,1.366c0.65,0.651,1.154,1.366,1.511,2.147c0.357,0.78,0.623,1.583,0.797,2.405
				c0.172,0.824,0.281,1.637,0.324,2.439s0.065,1.528,0.065,2.18s-0.022,1.377-0.065,2.18c-0.043,0.802-0.152,1.615-0.324,2.438
				c-0.174,0.824-0.439,1.626-0.797,2.406c-0.357,0.781-0.861,1.497-1.511,2.147c-0.585,0.585-1.23,1.046-1.934,1.383
				c-0.705,0.335-1.425,0.585-2.162,0.747c-0.737,0.163-1.468,0.261-2.194,0.294c-0.726,0.032-1.413,0.048-2.063,0.048
				c-0.651,0-1.338-0.016-2.064-0.048c-0.726-0.033-1.457-0.131-2.194-0.294c-0.737-0.162-1.457-0.412-2.161-0.747
				c-0.705-0.337-1.35-0.798-1.934-1.383c-0.65-0.65-1.154-1.366-1.512-2.147c-0.357-0.78-0.623-1.582-0.796-2.406
				c-0.173-0.823-0.282-1.637-0.325-2.438c-0.043-0.803-0.064-1.528-0.064-2.18s0.021-1.377,0.064-2.18
				c0.043-0.803,0.152-1.615,0.325-2.439c0.174-0.822,0.439-1.625,0.796-2.405c0.357-0.781,0.861-1.496,1.512-2.147
				c0.584-0.585,1.229-1.04,1.934-1.366c0.704-0.325,1.424-0.569,2.161-0.732c0.737-0.161,1.468-0.265,2.194-0.307
				c0.726-0.045,1.414-0.066,2.064-0.066C101.841,39.738,102.528,39.76,103.254,39.805z M92.056,53.432
				c0.022,0.715,0.098,1.414,0.228,2.097c0.13,0.684,0.325,1.351,0.585,2c0.26,0.651,0.629,1.237,1.106,1.756
				c0.477,0.543,1.019,0.961,1.626,1.253s1.231,0.51,1.871,0.651c0.639,0.14,1.279,0.222,1.919,0.243
				c0.639,0.022,1.23,0.032,1.773,0.032c0.541,0,1.132-0.01,1.772-0.032c0.639-0.021,1.279-0.104,1.919-0.243
				c0.64-0.142,1.257-0.359,1.854-0.651c0.597-0.292,1.144-0.71,1.643-1.253c0.478-0.519,0.846-1.104,1.106-1.756
				c0.26-0.649,0.455-1.316,0.585-2c0.129-0.683,0.205-1.382,0.228-2.097c0.021-0.717,0.033-1.399,0.033-2.05
				c0-0.651-0.011-1.333-0.033-2.049c-0.022-0.716-0.098-1.415-0.228-2.097c-0.13-0.685-0.326-1.351-0.585-2.001
				c-0.26-0.649-0.628-1.236-1.106-1.756c-0.499-0.543-1.046-0.961-1.643-1.253c-0.596-0.293-1.214-0.51-1.854-0.649
				c-0.64-0.142-1.28-0.223-1.919-0.244c-0.64-0.023-1.231-0.033-1.772-0.033c-0.542,0-1.134,0.01-1.773,0.033
				c-0.64,0.021-1.28,0.103-1.919,0.244c-0.64,0.14-1.263,0.356-1.871,0.649c-0.607,0.292-1.149,0.71-1.626,1.253
				c-0.477,0.52-0.846,1.106-1.106,1.756c-0.26,0.65-0.455,1.316-0.585,2.001c-0.13,0.682-0.206,1.381-0.228,2.097
				s-0.032,1.397-0.032,2.049C92.024,52.032,92.034,52.715,92.056,53.432z"/>
			<path fill="#0054A5" d="M116.163,62.756V42.313c0-0.388,0.059-0.714,0.179-0.974c0.12-0.261,0.265-0.477,0.439-0.65
				c0.303-0.324,0.627-0.519,0.974-0.584c0.348-0.066,0.705-0.098,1.073-0.098h13.063v1.561h-13.193
				c-0.109,0-0.211,0.006-0.309,0.018c-0.098,0.009-0.189,0.069-0.276,0.178c-0.087,0.107-0.142,0.229-0.163,0.357
				c-0.022,0.129-0.033,0.248-0.033,0.356v7.921h10.203v1.562h-10.203l-0.005,10.796H116.163z"/>
			<path fill="#0054A5" d="M141.414,62.756V41.568h-9.521v-1.561h20.792v1.561h-9.521v21.188H141.414z"/>
			<path fill="#0054A5" d="M164.352,41.948c0.065-0.217,0.146-0.449,0.244-0.697c0.098-0.249,0.232-0.488,0.406-0.717
				c0.173-0.228,0.396-0.417,0.668-0.569c0.271-0.151,0.6-0.227,0.992-0.227c0.391,0,0.72,0.075,0.992,0.227
				c0.271,0.152,0.493,0.342,0.666,0.569c0.174,0.229,0.311,0.468,0.407,0.717c0.097,0.248,0.178,0.48,0.244,0.697l4.881,18.796
				c0.043,0.174,0.13,0.315,0.26,0.424c0.129,0.107,0.248,0.161,0.356,0.161c0.196,0,0.331-0.092,0.407-0.275
				c0.075-0.185,0.123-0.331,0.146-0.439l5.14-20.606h1.777l-5.396,21.1c-0.218,0.803-0.521,1.322-0.91,1.56
				c-0.391,0.24-0.803,0.358-1.236,0.358c-0.391,0-0.714-0.066-0.975-0.195c-0.26-0.13-0.477-0.293-0.649-0.488
				c-0.175-0.194-0.31-0.416-0.407-0.666c-0.097-0.249-0.18-0.492-0.243-0.731l-4.941-18.698c-0.022-0.087-0.071-0.217-0.147-0.39
				c-0.075-0.174-0.199-0.262-0.372-0.262c-0.174,0-0.299,0.088-0.374,0.262c-0.075,0.173-0.125,0.303-0.147,0.39l-4.939,18.698
				c-0.065,0.239-0.148,0.482-0.244,0.731c-0.098,0.25-0.233,0.472-0.407,0.666c-0.174,0.195-0.391,0.358-0.649,0.488
				c-0.26,0.129-0.585,0.195-0.976,0.195c-0.434,0-0.846-0.118-1.235-0.358c-0.391-0.237-0.693-0.757-0.911-1.56l-5.395-21.1h1.776
				l5.141,20.606c0.021,0.108,0.07,0.255,0.146,0.439c0.076,0.184,0.212,0.275,0.407,0.275c0.108,0,0.228-0.054,0.359-0.161
				c0.129-0.108,0.214-0.25,0.259-0.424L164.352,41.948z"/>
			<path fill="#0054A5" d="M189.664,42.145c0.129-0.305,0.271-0.602,0.422-0.896c0.151-0.29,0.325-0.552,0.521-0.778
				c0.194-0.229,0.423-0.408,0.681-0.537c0.261-0.129,0.563-0.195,0.91-0.195c0.672,0,1.197,0.249,1.575,0.748
				c0.38,0.498,0.699,1.051,0.959,1.658l8.707,20.611h-1.886l-2.761-6.623h-13.188l-2.761,6.623h-1.886L189.664,42.145z
				 M186.288,54.572h11.819l-4.968-11.894c-0.108-0.238-0.233-0.515-0.374-0.829c-0.141-0.313-0.33-0.472-0.568-0.472
				c-0.237,0-0.427,0.159-0.568,0.472c-0.14,0.314-0.265,0.591-0.373,0.829L186.288,54.572z"/>
			<path fill="#0054A5" d="M205.41,43.486c0-0.5,0.042-0.971,0.129-1.416c0.087-0.443,0.356-0.872,0.812-1.283
				c0.391-0.347,0.79-0.563,1.201-0.649s0.833-0.13,1.265-0.13h9.576c0.325,0,0.682,0.021,1.072,0.065
				c0.389,0.043,0.779,0.135,1.168,0.275c0.39,0.14,0.762,0.34,1.12,0.601c0.356,0.259,0.677,0.596,0.958,1.006
				c0.431,0.672,0.708,1.44,0.828,2.307c0.118,0.865,0.178,1.721,0.178,2.566c0,0.692-0.049,1.467-0.146,2.321
				c-0.098,0.854-0.384,1.661-0.859,2.42c-0.261,0.389-0.553,0.712-0.877,0.974c-0.325,0.259-0.665,0.464-1.023,0.617
				c-0.355,0.15-0.72,0.254-1.086,0.308c-0.369,0.055-0.726,0.081-1.073,0.081h-5.03v0.163l10.661,9.044h-2.559l-10.043-8.578
				c-0.174-0.132-0.32-0.268-0.439-0.409c-0.118-0.139-0.178-0.329-0.178-0.567v-0.521c0-0.237,0.071-0.422,0.21-0.552
				c0.142-0.13,0.33-0.195,0.568-0.195h7.039c0.562,0,1.049-0.135,1.459-0.404c0.411-0.271,0.703-0.56,0.877-0.862
				c0.172-0.304,0.316-0.753,0.438-1.349c0.119-0.597,0.178-1.489,0.178-2.681c0-0.347-0.011-0.72-0.031-1.121
				c-0.023-0.4-0.066-0.797-0.132-1.187c-0.064-0.389-0.167-0.753-0.309-1.088c-0.141-0.336-0.34-0.623-0.6-0.86
				c-0.215-0.196-0.454-0.347-0.715-0.456c-0.26-0.108-0.513-0.189-0.763-0.244c-0.248-0.053-0.482-0.087-0.696-0.096
				c-0.219-0.012-0.391-0.018-0.521-0.018h-9.284c-0.173,0-0.362,0.018-0.567,0.05c-0.205,0.031-0.406,0.134-0.601,0.308
				c-0.195,0.174-0.32,0.362-0.374,0.569c-0.055,0.206-0.079,0.406-0.079,0.601v19.66h-1.751V43.486z"/>
			<path fill="#0054A5" d="M231.274,62.756c-0.391,0-0.79-0.021-1.202-0.064c-0.411-0.042-0.799-0.249-1.166-0.617
				c-0.347-0.347-0.553-0.736-0.616-1.17c-0.066-0.434-0.098-0.867-0.098-1.301V43.03c0-0.672,0.086-1.175,0.26-1.513
				c0.172-0.334,0.303-0.557,0.388-0.666c0.325-0.389,0.691-0.627,1.102-0.714c0.413-0.087,0.835-0.13,1.269-0.13h13.419v1.561
				h-13.159c-0.173,0-0.386,0.026-0.634,0.081c-0.249,0.055-0.427,0.136-0.536,0.244c-0.175,0.153-0.276,0.354-0.309,0.603
				c-0.034,0.249-0.05,0.427-0.05,0.535v7.313h14.364v1.562h-14.364v8.088c0,0.129,0.027,0.286,0.082,0.471
				c0.054,0.184,0.135,0.33,0.243,0.437c0.108,0.11,0.329,0.186,0.667,0.229c0.336,0.043,0.6,0.065,0.796,0.065h13.029v1.561
				H231.274z"/>
		</g>
	</g>
	<g>
		<g>
			<path fill="#0054A5" d="M251.444,61.196h15.988v1.566h-15.988V61.196z"/>
		</g>
	</g>
	<path fill="#0054A5" d="M55.378,6.604H6.948c-2.129,0-3.853,1.725-3.853,3.853v48.432c0,2.127,1.724,3.851,3.853,3.851h48.43
		c2.13,0,3.854-1.724,3.854-3.851v-5.08H57.08c-1.488,0-2.667-0.131-3.536-0.391c-0.869-0.266-1.648-0.672-2.338-1.224
		c-0.717-0.579-1.262-1.296-1.635-2.152c-0.373-0.854-0.558-1.987-0.558-3.395v-11.05h-3.019v-3.718h3.019v-7.028h4.841v7.028h5.378
		V10.457C59.232,8.329,57.508,6.604,55.378,6.604z M45.763,49.234c-0.027,0.399-0.103,0.821-0.228,1.26
		c-0.125,0.445-0.312,0.873-0.56,1.286c-0.249,0.414-0.593,0.786-1.036,1.117c-0.554,0.414-1.142,0.67-1.763,0.767
		c-0.624,0.096-1.209,0.145-1.763,0.145h-14.02v-3.717h12.324c0.248,0,0.524-0.034,0.828-0.104c0.303-0.068,0.564-0.242,0.785-0.52
		c0.221-0.221,0.345-0.462,0.373-0.724c0.027-0.264,0.042-0.477,0.042-0.644c0-0.304-0.035-0.593-0.103-0.871
		c-0.07-0.276-0.242-0.539-0.519-0.789c-0.082-0.081-0.193-0.158-0.331-0.228c-0.138-0.069-0.352-0.158-0.642-0.268
		c-0.29-0.112-0.668-0.237-1.138-0.377c-0.47-0.137-1.091-0.315-1.862-0.536l-4.221-1.158c-1.16-0.304-2.139-0.667-2.938-1.095
		c-0.801-0.43-1.422-0.944-1.864-1.553c-0.441-0.605-0.724-1.239-0.847-1.903c-0.125-0.661-0.187-1.269-0.187-1.818
		c0-0.552,0.063-1.159,0.187-1.819c0.123-0.662,0.406-1.296,0.847-1.901c0.332-0.445,0.704-0.794,1.118-1.057
		c0.414-0.262,0.848-0.456,1.303-0.579c0.455-0.125,0.923-0.2,1.407-0.229c0.482-0.027,0.957-0.041,1.427-0.041h12.366v3.718H33.127
		c-0.275,0-0.558,0.014-0.848,0.041c-0.29,0.027-0.572,0.151-0.847,0.373c-0.304,0.221-0.483,0.463-0.538,0.723
		c-0.055,0.262-0.083,0.545-0.083,0.849c0,0.303,0.034,0.593,0.103,0.87c0.069,0.274,0.269,0.551,0.602,0.826
		c0.166,0.138,0.372,0.261,0.62,0.372c0.25,0.111,0.504,0.214,0.767,0.311c0.262,0.096,0.518,0.187,0.767,0.268
		c0.248,0.085,0.441,0.14,0.58,0.166l4.722,1.324c1.325,0.387,2.43,0.754,3.313,1.098c0.883,0.345,1.601,0.808,2.154,1.385
		c0.606,0.637,0.987,1.314,1.139,2.031c0.152,0.715,0.228,1.379,0.228,1.985C45.806,48.496,45.791,48.834,45.763,49.234z
		 M53.854,45.66c0,0.415,0.035,0.828,0.104,1.243s0.192,0.821,0.372,1.223c0.179,0.398,0.448,0.736,0.807,1.014
		c0.551,0.469,1.206,0.745,1.964,0.827c0.759,0.084,1.358,0.125,1.799,0.125h0.332V35.598h-5.378V45.66z"/>
	<path fill="#F48120" d="M19.391,50.085c-0.19,0-0.36-0.02-0.513-0.05c-0.156-0.039-0.291-0.15-0.409-0.339
		c-0.119-0.168-0.189-0.374-0.214-0.624c-0.023-0.249-0.035-0.477-0.035-0.688v-0.24V28.974v-2.542c0-0.378-0.048-0.792-0.141-1.242
		c-0.096-0.451-0.357-0.852-0.783-1.21c-0.568-0.446-1.337-0.671-2.308-0.671H9.63v3.724h2.73c0.19,0,0.361,0.019,0.515,0.055
		c0.153,0.035,0.289,0.147,0.408,0.334c0.118,0.166,0.188,0.375,0.211,0.622c0.024,0.249,0.036,0.479,0.036,0.691v0.239v19.169
		v2.544c0,0.377,0.048,0.791,0.144,1.243c0.093,0.445,0.354,0.849,0.78,1.204c0.569,0.449,1.337,0.674,2.31,0.674h10.313v-3.724
		H19.391z"/>
	<g>
		<g>
			<path fill="#0054A5" d="M69.187,29.664V9.671c0-0.373,0.055-0.751,0.165-1.135c0.109-0.384,0.339-0.74,0.689-1.069
				c0.394-0.373,0.805-0.602,1.231-0.69c0.426-0.087,0.837-0.132,1.231-0.132h14.988v3.446H74.606c-0.154,0-0.297,0.005-0.428,0.016
				c-0.131,0.012-0.263,0.094-0.394,0.248c-0.132,0.132-0.209,0.28-0.23,0.445c-0.021,0.165-0.033,0.324-0.033,0.477v5.007h10.19
				v3.446h-10.19v9.934H69.187z"/>
			<path fill="#0054A5" d="M89.597,29.664V6.646h4.334v23.018H89.597z"/>
			<path fill="#0054A5" d="M97.881,10.559c0-0.482,0.044-0.991,0.131-1.529c0.087-0.538,0.361-1.025,0.822-1.463
				c0.416-0.395,0.871-0.646,1.363-0.757c0.493-0.109,0.958-0.164,1.397-0.164h10.911c0.394,0,0.81,0.016,1.249,0.05
				c0.438,0.032,0.876,0.114,1.314,0.246c0.438,0.132,0.86,0.34,1.266,0.625c0.405,0.285,0.772,0.679,1.101,1.184
				c0.547,0.789,0.876,1.621,0.985,2.498c0.11,0.876,0.165,1.731,0.165,2.563c0,0.833-0.049,1.693-0.147,2.581
				s-0.377,1.758-0.836,2.613c-0.154,0.285-0.339,0.564-0.558,0.838c-0.218,0.274-0.497,0.527-0.836,0.756
				c-0.339,0.23-0.748,0.417-1.229,0.559c-0.482,0.142-1.05,0.213-1.706,0.213h-2.952v0.164l8.75,8.128h-5.465l-7.558-7.473
				c-0.241-0.241-0.482-0.543-0.723-0.905s-0.361-0.708-0.361-1.037v-0.527c0-0.461,0.164-0.839,0.493-1.135
				c0.328-0.296,0.809-0.445,1.443-0.445h4.331c0.372,0,0.782-0.055,1.23-0.165c0.448-0.109,0.826-0.394,1.132-0.854
				c0.109-0.175,0.203-0.405,0.279-0.69c0.077-0.284,0.131-0.575,0.163-0.87c0.033-0.296,0.055-0.586,0.066-0.871
				c0.011-0.285,0.017-0.525,0.017-0.722c0-0.92-0.077-1.621-0.23-2.104c-0.153-0.482-0.351-0.843-0.591-1.084
				c-0.352-0.35-0.757-0.553-1.216-0.608c-0.461-0.055-0.866-0.082-1.217-0.082h-7.035c-0.241,0-0.449,0.017-0.625,0.049
				s-0.351,0.137-0.525,0.312c-0.242,0.198-0.378,0.401-0.411,0.608c-0.033,0.209-0.049,0.434-0.049,0.675v17.927h-4.334V10.559z"/>
			<path fill="#0054A5" d="M121.324,26.218h12.753c0.526,0,0.931-0.093,1.216-0.28c0.285-0.187,0.498-0.412,0.643-0.676
				c0.141-0.264,0.229-0.54,0.262-0.825c0.033-0.286,0.049-0.527,0.049-0.726c0-0.221-0.021-0.451-0.066-0.693
				c-0.043-0.242-0.142-0.478-0.295-0.709c-0.154-0.231-0.377-0.451-0.673-0.661c-0.295-0.208-0.695-0.391-1.199-0.544l-9.067-2.858
				c-0.088-0.021-0.236-0.072-0.444-0.148c-0.208-0.077-0.443-0.186-0.706-0.329c-0.264-0.142-0.537-0.312-0.821-0.509
				s-0.537-0.438-0.755-0.724c-0.263-0.306-0.472-0.646-0.625-1.018s-0.274-0.75-0.362-1.134c-0.087-0.383-0.142-0.76-0.164-1.133
				c-0.021-0.373-0.033-0.723-0.033-1.052c0-0.701,0.083-1.435,0.246-2.202c0.164-0.766,0.575-1.456,1.231-2.07
				c0.591-0.569,1.226-0.925,1.904-1.067c0.679-0.143,1.304-0.214,1.874-0.214h13.246v3.446h-11.767
				c-0.307,0-0.619,0.027-0.937,0.082c-0.317,0.055-0.608,0.203-0.871,0.443c-0.286,0.264-0.456,0.57-0.51,0.921
				c-0.055,0.351-0.082,0.636-0.082,0.856c0,0.504,0.125,0.986,0.377,1.447c0.251,0.461,0.838,0.844,1.758,1.15l8.412,2.665
				c0.767,0.241,1.418,0.494,1.955,0.756c0.537,0.264,0.98,0.559,1.331,0.888s0.625,0.697,0.821,1.102
				c0.197,0.405,0.345,0.812,0.443,1.217s0.165,0.795,0.197,1.168c0.033,0.373,0.05,0.691,0.05,0.954
				c0,0.724-0.071,1.464-0.214,2.22c-0.143,0.758-0.455,1.442-0.937,2.057c-0.569,0.745-1.205,1.207-1.906,1.381
				c-0.701,0.176-1.435,0.264-2.202,0.264h-14.134V26.218z"/>
			<path fill="#0054A5" d="M149.684,29.664V10.092h-8.974V6.646h22.315v3.446h-9.007v19.572H149.684z"/>
			<path fill="#0054A5" d="M175.282,29.664c-0.372,0-0.755-0.043-1.148-0.131c-0.395-0.087-0.722-0.242-0.985-0.46
				c-0.177-0.153-0.356-0.383-0.543-0.69c-0.185-0.308-0.278-0.713-0.278-1.218V6.646h4.335v18.322c0,0.132,0.006,0.291,0.015,0.477
				c0.012,0.187,0.105,0.356,0.279,0.51c0.065,0.044,0.175,0.099,0.33,0.165c0.152,0.066,0.406,0.099,0.756,0.099h12.622v3.446
				H175.282z"/>
			<path fill="#0054A5" d="M191.982,29.664V6.646h4.334v23.018H191.982z"/>
			<path fill="#0054A5" d="M222.286,26.677c0,1.163-0.333,1.995-1.004,2.5c-0.668,0.503-1.473,0.756-2.415,0.756
				c-0.701,0-1.369-0.122-2.005-0.364c-0.637-0.244-1.207-0.771-1.711-1.582l-9.7-15.317c-0.177-0.241-0.296-0.395-0.361-0.46
				s-0.121-0.099-0.164-0.099c-0.088,0-0.188,0.051-0.297,0.148c-0.109,0.099-0.164,0.269-0.164,0.51v16.896h-4.199V9.524
				c0-0.985,0.313-1.752,0.935-2.299c0.628-0.548,1.486-0.822,2.582-0.822c1.031,0,1.82,0.172,2.368,0.516
				c0.548,0.344,0.975,0.767,1.284,1.271l9.765,15.416c0.087,0.11,0.159,0.231,0.215,0.362c0.054,0.131,0.157,0.197,0.311,0.197
				c0.175,0,0.28-0.071,0.313-0.213c0.032-0.141,0.049-0.257,0.049-0.345V6.646h4.199V26.677z"/>
			<path fill="#0054A5" d="M229.711,29.664c-0.504,0-0.974-0.027-1.411-0.082c-0.438-0.055-0.843-0.269-1.214-0.642
				c-0.396-0.373-0.637-0.805-0.724-1.298c-0.089-0.493-0.132-0.959-0.132-1.398V9.934c0-0.461,0.07-0.904,0.214-1.332
				c0.142-0.428,0.333-0.783,0.573-1.07c0.371-0.415,0.816-0.667,1.332-0.755c0.513-0.087,0.988-0.132,1.428-0.132h14.758v3.446
				h-12.426c-0.197,0-0.4,0.017-0.607,0.049c-0.208,0.034-0.4,0.126-0.575,0.281c-0.176,0.177-0.279,0.364-0.313,0.562
				c-0.032,0.198-0.049,0.385-0.049,0.561v4.658h13.641v3.446h-13.641v5.387c0,0.416,0.109,0.712,0.327,0.887
				c0.131,0.131,0.323,0.213,0.576,0.246c0.252,0.034,0.553,0.049,0.904,0.049h12.294v3.446H229.711z"/>
		</g>
	</g>
</g>
</svg>
