<svg id="Layer_1" xmlns="http://www.w3.org/2000/svg" width="126" height="28" viewBox="0 0 126 28"><g fill="none" fill-rule="evenodd"><path fill="#F00" fill-rule="nonzero" d="M5.466 23.28v-7.554L.42 2.183h2.54l3.717 10.445L10.954 0h2.33L7.798 15.814v7.465h-2.33"/><path fill="#000" fill-rule="nonzero" d="M20.16 19.916c0 .708.03 1.357.088 1.947.06.59.118 1.062.177 1.416h-1.947c-.096-.39-.165-.783-.207-1.18h-.146c-.32.4-.71.74-1.15 1.002-.434.256-.974.384-1.624.384-1.062 0-1.923-.384-2.58-1.15-.66-.768-.99-1.89-.99-3.364 0-.787.11-1.505.325-2.154.2-.622.55-1.184 1.018-1.638.462-.442 1.057-.786 1.785-1.032.727-.246 1.612-.37 2.655-.37h.325v-.89c0-.993-.162-1.707-.487-2.143-.324-.436-.81-.654-1.46-.654-.566-.005-1.125.135-1.622.408-.474.26-.92.567-1.328.92l-.442-2.036c.334-.275.82-.54 1.46-.796.662-.26 1.368-.39 2.08-.384.65 0 1.23.08 1.74.236.512.158.94.42 1.284.782.344.364.605.846.782 1.446.177.6.266 1.353.266 2.257v6.993zm-2.272-4.396h-.266c-.708 0-1.288.074-1.74.223-.453.15-.807.368-1.063.656-.257.287-.434.63-.53 1.027-.103.43-.153.87-.15 1.31 0 .874.143 1.57.428 2.086.286.516.723.774 1.314.774.393 0 .77-.113 1.135-.342.364-.228.654-.51.87-.85V15.52zm7.435 7.76h-2.3V8.38h2.3v1.298h.148c.1-.138.24-.296.428-.472.187-.178.408-.34.664-.487.256-.15.536-.27.84-.37.306-.098.635-.148.99-.148 1.986 0 2.98 1.122 2.98 3.364V23.28h-2.33V11.77c0-.57-.12-.963-.355-1.18-.236-.216-.58-.324-1.033-.324-.492 0-.935.152-1.328.457-.38.29-.717.634-1.003 1.018V23.28zm12.835.206c-1.476 0-2.597-.6-3.364-1.8-.767-1.2-1.15-2.96-1.15-5.28 0-2.755.466-4.81 1.4-6.168.935-1.357 2.15-2.036 3.645-2.036.353 0 .702.055 1.046.163.344.108.624.24.84.398v-6.58h2.302V23.28h-1.71l-.178-1.18h-.148c-.317.398-.7.737-1.135 1.003-.424.256-.94.384-1.55.384zm2.42-12.684c-.217-.222-.472-.403-.753-.533-.266-.12-.596-.18-.99-.18-.47 0-.88.164-1.223.49-.345.327-.63.76-.856 1.305-.242.6-.41 1.227-.502 1.868-.11.73-.165 1.47-.162 2.21 0 1.76.177 3.14.53 4.137.355 1 .955 1.497 1.8 1.497.57 0 1.024-.118 1.358-.356.335-.235.6-.502.797-.8v-9.638zm13.13 11.474c-.478.376-1.01.675-1.58.885-.58.217-1.244.326-1.992.326-1.534 0-2.744-.595-3.63-1.785-.884-1.19-1.326-2.935-1.326-5.236 0-1.2.083-2.302.25-3.305.167-1.004.433-1.874.797-2.612.364-.738.83-1.313 1.4-1.726.57-.413 1.25-.62 2.037-.62.61 0 1.17.123 1.682.37.51.245.944.644 1.298 1.194.354.55.63 1.264.826 2.14.197.875.296 1.942.296 3.2v1.27H47.57c0 1.69.23 2.97.693 3.835.462.867 1.155 1.3 2.08 1.3.65 0 1.21-.114 1.682-.34.403-.186.788-.408 1.15-.664l.532 1.77zM49.663 10.09c-.708 0-1.21.4-1.504 1.196-.295.796-.483 1.863-.56 3.2h3.805c0-.63-.03-1.214-.088-1.755-.046-.474-.14-.944-.28-1.4-.13-.393-.306-.698-.532-.915-.226-.216-.528-.332-.84-.324zm14.104-1.68l-2.774 6.962 3.098 7.907h-2.39l-2.3-6.138-2.243 6.137h-2.273l3.098-7.7-2.803-7.17h2.39l1.917 5.4 2.035-5.4h2.243zm25.875 15.164c-.633.004-1.255-.164-1.8-.487-.55-.324-1.028-.8-1.43-1.43-.404-.63-.724-1.42-.96-2.376-.236-.953-.354-2.07-.354-3.348 0-1.24.117-2.345.353-3.32.236-.972.556-1.79.96-2.448.402-.658.88-1.165 1.43-1.52.534-.35 1.16-.533 1.8-.53.65 0 1.25.158 1.8.472.55.315 1.027.792 1.43 1.43.403.64.723 1.437.96 2.39.235.955.353 2.07.353 3.35 0 1.24-.118 2.34-.354 3.304s-.556 1.78-.96 2.45c-.402.668-.88 1.18-1.43 1.533-.55.354-1.15.53-1.8.53zm0-1.18c.865 0 1.608-.537 2.227-1.612.62-1.074.93-2.725.93-4.953 0-1.153-.084-2.144-.25-2.975-.168-.83-.395-1.51-.68-2.037-.285-.527-.62-.913-1.003-1.157-.364-.238-.79-.365-1.224-.366-.866 0-1.608.528-2.228 1.583-.62 1.055-.93 2.706-.93 4.952 0 1.152.084 2.144.25 2.974.168.83.395 1.51.68 2.037.285.528.62.92 1.003 1.173.384.254.792.38 1.225.38zm11.802-13.1c-.748 0-1.397.285-1.948.856-.55.57-1.013 1.327-1.386 2.272V23.28h-1.386V8.41h1.268l.06 2.45h.06c.097-.276.25-.57.456-.886.206-.315.457-.61.752-.886.295-.275.64-.506 1.033-.693.393-.187.845-.28 1.357-.28 1.003 0 1.775.305 2.316.914.54.61.81 1.504.81 2.684V23.28h-1.385V11.89c0-1.73-.67-2.596-2.005-2.596zm7.17 6.786c.04 2.055.323 3.622.855 4.7.53 1.076 1.337 1.614 2.42 1.614.49 0 .923-.08 1.297-.24.374-.16.688-.35.944-.57.296-.22.55-.49.768-.813l.443 1.122c-.235.335-.52.62-.855.856-.295.217-.66.41-1.09.575-.434.167-.945.25-1.535.25-1.574 0-2.735-.677-3.482-2.035-.748-1.357-1.12-3.255-1.12-5.694 0-1.22.107-2.306.323-3.26.217-.954.518-1.765.9-2.434.385-.67.842-1.175 1.373-1.52.517-.34 1.122-.52 1.74-.516.65 0 1.23.167 1.742.5.51.336.934.838 1.268 1.506.335.67.57 1.5.71 2.493.136.994.146 2.15.028 3.467h-6.726zm2.98-6.786c-.788 0-1.46.485-2.022 1.453-.56.97-.87 2.383-.93 4.24h5.4c.118-1.975-.074-3.418-.575-4.328-.502-.91-1.127-1.366-1.874-1.366zM118.29 28c-.156 0-.3-.005-.427-.014-.114-.008-.227-.022-.34-.042l-.146-1.242c.118.04.25.068.398.088.147.02.32.03.516.03.512 0 .945-.232 1.3-.696.353-.464.64-1.11.855-1.938l.118-.444-3.688-15.333h1.387l2.36 9.706c.137.57.255 1.13.354 1.682.098.55.187 1.11.266 1.68h.088c.098-.59.207-1.16.325-1.71.118-.55.245-1.1.383-1.652l2.302-9.707h1.24l-3.807 15.636c-.118.512-.27 1.003-.458 1.476-.187.472-.418.89-.693 1.253-.276.364-.6.66-.974.886-.373.227-.826.34-1.357.34z"/><path fill="#000" d="M72.972 8.355c-.154-.54-.285-1.05-.39-1.523-.108-.473-.21-.952-.306-1.435h-.087c.057.986.086 2.01.086 3.074V23H71V2.265h1.682l3.51 13.253c.077.27.16.643.246 1.116.087.474.15.904.19 1.29h.086c.058-.386.135-.816.232-1.29.097-.473.184-.845.26-1.116l3.54-13.253h1.624V23h-1.392V8.47c0-.502.01-1.01.03-1.522.018-.512.047-1.03.086-1.55h-.116c-.136.58-.256 1.09-.363 1.536-.106.445-.217.89-.333 1.334L77.178 19.81h-1.13L72.97 8.355z"/></g></svg>