<svg id="bonniernews-logo" width="234" height="57" viewBox="0 0 234 57" version="1.1" xmlns="http://www.w3.org/2000/svg" xmlns:xlink="http://www.w3.org/1999/xlink">
    <!-- Generator: Sketch 50 (54983) - http://www.bohemiancoding.com/sketch -->
    <title>Bonnier_News_LOGO_NORMAL_BLACK_RGB</title>
    <desc>Created with Sketch.</desc>
    <defs></defs>
    <g id="Desktop" stroke="none" stroke-width="1" fill="none" fill-rule="evenodd">
        <g id="inner" transform="translate(-175.000000, -3685.000000)" fill="#FFFFFF" fill-rule="nonzero">
            <g id="Bonnier_News_LOGO_NORMAL_BLACK_RGB" transform="translate(175.000000, 3685.000000)">
                <path d="M1.08378947,0.611684211 L17.6813684,0.611684211 C21.7661053,0.611684211 24.9846316,1.73652632 27.0249474,3.77684211 C28.654044,5.3722184 29.5463354,7.57320389 29.4881053,9.85263158 L29.4881053,9.95526316 C29.4881053,13.9907368 27.3410526,16.2363158 24.7916842,17.6649474 C28.9297895,19.2495789 31.4791579,21.6470526 31.4791579,26.4502105 L31.4791579,26.5528421 C31.4791579,33.0884211 26.1669474,36.3562105 18.1001053,36.3562105 L1.08378947,36.3562105 L1.08378947,0.611684211 Z M15.9941053,15.0622105 C19.4671579,15.0622105 21.6634737,13.9373684 21.6634737,11.2812632 L21.6634737,11.1786316 C21.6634737,8.83042105 19.8243158,7.48389474 16.5072632,7.48389474 L8.74421053,7.48389474 L8.74421053,15.0416842 L15.9941053,15.0416842 L15.9941053,15.0622105 Z M18.0877895,29.4634737 C21.5608421,29.4634737 23.6545263,28.2318947 23.6545263,25.584 L23.6545263,25.4813684 C23.6545263,23.0797895 21.8687368,21.6018947 17.8332632,21.6018947 L8.74421053,21.6018947 L8.74421053,29.4634737 L18.0877895,29.4634737 Z" id="Shape"></path>
                <path d="M34.2666316,18.5845263 L34.2666316,18.486 C34.2666316,8.32547368 42.2842105,0.0123157895 53.3109474,0.0123157895 C64.3376842,0.0123157895 72.2567368,8.22284211 72.2567368,18.3956842 L72.2567368,18.4983158 C72.2567368,28.6629474 64.2391579,36.972 53.2124211,36.972 C42.1856842,36.972 34.2666316,28.7491579 34.2666316,18.5845263 Z M64.038,18.5845263 L64.038,18.486 C64.038,12.3568421 59.5427368,7.24989474 53.2124211,7.24989474 C46.8821053,7.24989474 42.4894737,12.2542105 42.4894737,18.3833684 L42.4894737,18.486 C42.4894737,24.6151579 46.9847368,29.718 53.3150526,29.718 C59.6453684,29.718 64.038,24.7136842 64.038,18.5845263 Z" id="Shape"></path>
                <rect id="Rectangle-path" x="155.080421" y="0.611684211" width="7.86568421" height="35.7445263"></rect>
                <polygon id="Shape" points="170.573684 0.611684211 197.537053 0.611684211 197.537053 7.60705263 178.390105 7.60705263 178.390105 14.8610526 195.238105 14.8610526 195.238105 21.8564211 178.390105 21.8564211 178.390105 29.3608421 197.791579 29.3608421 197.791579 36.3562105 170.573684 36.3562105"></polygon>
                <polygon id="Shape" points="100.517368 0.611684211 100.517368 22.62 83.7678947 0.611684211 72.8889474 0.611684211 76.518 5.382 76.518 36.3562105 84.2769474 36.3562105 84.2769474 14.1262105 101.215263 36.3562105 108.280421 36.3562105 108.280421 0.611684211"></polygon>
                <polygon id="Shape" points="139.903263 0.611684211 139.903263 22.62 123.153789 0.611684211 112.274842 0.611684211 115.903895 5.382 115.903895 36.3562105 123.662842 36.3562105 123.662842 14.1262105 140.605263 36.3562105 147.666316 36.3562105 147.666316 0.611684211"></polygon>
                <path d="M210.431684,7.70968421 L218.231684,7.70968421 C222.061895,7.70968421 224.410105,9.44621053 224.410105,12.8166316 L224.410105,12.9028421 C224.410105,15.9161053 222.213789,17.9564211 218.383579,17.9564211 L210.431684,17.9564211 L224.438842,36.3397895 L233.823474,36.3397895 L224.340316,23.8762105 C229.122947,22.1848421 232.394842,18.3874737 232.394842,12.4923158 L232.394842,12.3896842 C232.394842,9.01926316 231.323368,6.23178947 229.332316,4.22021053 C226.984105,1.872 223.461789,0.595263158 218.913158,0.595263158 L202.574211,0.595263158 L202.574211,36.3397895 L210.435789,36.3397895 L210.435789,7.70968421 L210.431684,7.70968421 Z" id="Shape"></path>
                <path d="M14.8774737,43.7169474 C14.5994875,43.7406568 14.324491,43.7915312 14.0564211,43.8688421 C13.7822347,43.9272342 13.5180681,44.0254323 13.2723158,44.1603158 C13.0052693,44.3901626 12.8399817,44.7163104 12.8125263,45.0675789 C12.7248673,45.6311001 12.685041,46.2010272 12.6934737,46.7712632 L12.6934737,56.5951579 L11.8724211,56.5951579 L3.76042105,45.6135789 L3.76042105,52.5350526 C3.74503778,53.1339065 3.79459015,53.7326644 3.90821053,54.3208421 C3.96144922,54.6569851 4.11781495,54.968282 4.35568421,55.2116842 C4.62268188,55.4060316 4.92993174,55.5379106 5.25473684,55.5975789 C5.54860308,55.6855956 5.84934516,55.7487652 6.15378947,55.7864211 L6.15378947,56.4596842 L0.636315789,56.4596842 L0.636315789,55.7864211 C0.92836835,55.7491976 1.21675962,55.6873995 1.49842105,55.6016842 C1.76613479,55.5478623 2.02199311,55.4463533 2.25378947,55.302 C2.49676069,55.089811 2.65794581,54.7993874 2.70947368,54.4809474 C2.81075713,53.8665156 2.85200416,53.2436854 2.83263158,52.6212632 L2.83263158,46.0323158 C2.83125166,45.7357374 2.77990104,45.4415122 2.68073684,45.162 C2.60061022,44.9075661 2.45970567,44.6764826 2.27021053,44.4887368 C1.998323,44.2547517 1.68503116,44.0737386 1.34652632,43.9550526 C1.0468869,43.8281903 0.730057885,43.7465619 0.406421053,43.7128421 L0.406421053,43.0395789 L4.24073684,43.0395789 L11.7821053,53.2698947 L11.7821053,46.8903158 C11.7982979,46.2858096 11.7473546,45.6813735 11.6302105,45.0881053 C11.5804038,44.7736763 11.4272945,44.4847909 11.1950526,44.2670526 C10.9250774,44.1087104 10.6331889,43.991125 10.3288421,43.9181053 C10.031974,43.8254483 9.72671688,43.7621968 9.41747368,43.7292632 L9.41747368,43.056 L14.8733684,43.056 L14.8733684,43.7292632 L14.8774737,43.7169474 Z" id="Shape"></path>
                <path d="M23.5190526,54.2674737 C23.1540583,54.9824091 22.6146981,55.5937781 21.9508421,56.0450526 C21.2815664,56.4901991 20.4925009,56.7207608 19.6888421,56.706 C19.0097413,56.716376 18.3367755,56.5761748 17.7183158,56.2954737 C17.1761377,56.0478326 16.698466,55.6783395 16.3225263,55.2157895 C15.947227,54.7452277 15.6682381,54.2053843 15.5014737,53.6270526 C15.3186394,53.0031221 15.2273714,52.3559492 15.2305263,51.7057895 C15.2303562,51.1003434 15.3273801,50.4987957 15.5178947,49.9241053 C15.7033921,49.3523477 15.9898102,48.818442 16.3635789,48.3476842 C16.7280415,47.8958634 17.1841814,47.526474 17.7018947,47.2638947 C18.2580352,46.9843723 18.8735378,46.843525 19.4958947,46.8533684 C20.0947412,46.837659 20.6903068,46.9467062 21.2447368,47.1735789 C21.7033111,47.36786 22.1087136,47.6690965 22.4270526,48.0521053 C22.7231262,48.4153372 22.9436521,48.8340571 23.0756842,49.2836842 C23.2215578,49.7906986 23.2934575,50.3161198 23.2891579,50.8436842 L23.2891579,51.4923158 L17.1312632,51.4923158 C17.1262018,52.0528159 17.1854308,52.6120478 17.3077895,53.1590526 C17.4117784,53.628069 17.5995215,54.0744802 17.862,54.4768421 C18.1064333,54.8414073 18.4380462,55.1391533 18.8267368,55.3430526 C19.2667623,55.5643254 19.7548225,55.67294 20.2471579,55.6591579 C20.7614096,55.6682081 21.2669121,55.5254107 21.7004211,55.2486316 C22.2010282,54.8761189 22.605052,54.389038 22.8786316,53.8282105 L23.5190526,54.2674737 Z M21.4130526,50.7123158 C21.4107253,50.3342921 21.3805383,49.9569541 21.3227368,49.5833684 C21.278869,49.2340804 21.1819645,48.8935301 21.0353684,48.5734737 C20.8973102,48.293207 20.6929864,48.0508367 20.4401053,47.8673684 C20.1527897,47.6756371 19.8123304,47.5793891 19.4671579,47.5923158 C18.8201545,47.5883806 18.2101065,47.8934045 17.8250526,48.4133684 C17.3476866,49.0822551 17.0973302,49.886561 17.1107368,50.7082105 L21.4130526,50.7082105 L21.4130526,50.7123158 Z" id="Shape"></path>
                <path d="M38.0065263,47.7442105 C37.6996797,47.7862611 37.4071047,47.9001965 37.1526316,48.0767368 C36.8363818,48.2842434 36.6014651,48.5945655 36.4875789,48.9552632 L35.5926316,51.5867368 L34.6484211,54.366 C34.5362105,54.6944211 34.4212632,55.0474737 34.3035789,55.4251579 C34.1858947,55.8028421 34.0805263,56.1654737 33.9874737,56.5130526 L33.1664211,56.5130526 L30.6498947,49.6408421 L28.1292632,56.5130526 L27.3656842,56.5130526 C26.8922105,55.1145263 26.4310526,53.7255789 25.9822105,52.3462105 C25.5333684,50.9668421 25.1351579,49.7681053 24.7875789,48.75 C24.6865169,48.4543829 24.4805723,48.2060809 24.2087368,48.0521053 C23.9595734,47.8940035 23.6797488,47.7904684 23.3876842,47.7483158 L23.3876842,47.1243158 L27.5463158,47.1243158 L27.5463158,47.7975789 C27.3174179,47.8065524 27.0902298,47.8409749 26.8689474,47.9002105 C26.6881798,47.9033557 26.5349942,48.0341659 26.5035789,48.2122105 C26.5091741,48.2665384 26.5201759,48.3201725 26.5364211,48.3723158 C26.5583158,48.4544211 26.5856842,48.542 26.6185263,48.6350526 C26.8210526,49.2973684 27.0495789,50.0349474 27.3041053,50.8477895 C27.5586316,51.6606316 27.8884211,52.7197895 28.2934737,54.0252632 L30.6704211,47.3213684 L31.5858947,47.3213684 L34.0162105,53.9308421 C34.2898947,53.0878947 34.5635789,52.2668421 34.8372632,51.4676842 C35.1109474,50.6685263 35.3463158,49.9268421 35.5433684,49.2426316 C35.5871579,49.0784211 35.6295789,48.9292632 35.6706316,48.7951579 C35.711627,48.6621777 35.7323855,48.5237873 35.7322105,48.3846316 C35.7278068,48.2661894 35.6724273,48.1554304 35.5803158,48.0808421 C35.4708276,47.9872698 35.3457749,47.9136277 35.2108421,47.8632632 C35.0784579,47.8105141 34.9408432,47.771982 34.8003158,47.7483158 C34.6932928,47.7278662 34.5848802,47.7155154 34.476,47.7113684 L34.476,47.1078947 L38.0229474,47.1078947 L38.0229474,47.7113684 L38.0065263,47.7442105 Z" id="Shape"></path>
                <path d="M44.0658947,51.9028421 C44.3167713,52.1198897 44.5195254,52.3869657 44.6611579,52.6869474 C44.8095924,53.0299268 44.8810583,53.4012691 44.8705263,53.7748421 C44.8915581,54.5925781 44.5340446,55.3742601 43.9016842,55.8931579 C42.745698,56.7543183 41.2254073,56.9532929 39.8867368,56.4186316 C39.5381053,56.2846485 39.2093884,56.103716 38.9096842,55.8808421 L38.7208421,56.4966316 L38.0106316,56.4966316 L37.9162105,53.2534737 L38.5689474,53.2534737 C38.638565,53.553297 38.7461715,53.8430069 38.8891579,54.1155789 C39.0482165,54.4370208 39.2483076,54.7364675 39.4844211,55.0064211 C39.7359538,55.2895628 40.0345659,55.5270636 40.3670526,55.7084211 C40.7219711,55.9068853 41.1222082,56.0101267 41.5288421,56.0081053 C42.0294014,56.041689 42.5255921,55.8961786 42.9287368,55.5975789 C43.2672723,55.2993441 43.4490881,54.861471 43.4213684,54.4111579 C43.4276437,54.1731694 43.3740003,53.9374209 43.2653684,53.7255789 C43.1525377,53.52446 42.9952787,53.351756 42.8055789,53.2206316 C42.5672101,53.0532761 42.3094357,52.9154288 42.0378947,52.8101053 C41.7341053,52.6924211 41.3974737,52.5774737 41.028,52.4652632 C40.6915579,52.3623068 40.3612363,52.2403208 40.0386316,52.0998947 C39.7045763,51.9629404 39.3909935,51.7805927 39.1067368,51.558 C38.8266185,51.3329869 38.5948273,51.0537204 38.4252632,50.7369474 C38.243043,50.387645 38.1526315,49.9977455 38.1625263,49.6038947 C38.1522766,48.8655075 38.4621919,48.1588407 39.0123158,47.6662105 C39.6390597,47.1140962 40.4565179,46.8283541 41.2907368,46.8697895 C41.6687722,46.87188 42.0451373,46.9201319 42.4114737,47.0134737 C42.7353966,47.0867398 43.0485837,47.2012532 43.3433684,47.3542105 L43.5609474,46.8615789 L44.2424211,46.8615789 L44.4025263,49.8502105 L43.7497895,49.8502105 C43.6444751,49.2268164 43.3457471,48.6523396 42.8958947,48.2081053 C42.4683842,47.791502 41.8916473,47.5637649 41.2948421,47.5758947 C40.8473519,47.5533893 40.4077521,47.6999225 40.0632632,47.9864211 C39.7829015,48.2199409 39.6205185,48.5657566 39.6198947,48.9306316 C39.6117216,49.1757748 39.6623992,49.4193086 39.7676842,49.6408421 C39.8710563,49.8355705 40.0222049,50.0008452 40.2069474,50.1211579 C40.4314699,50.264531 40.6709991,50.3829191 40.9212632,50.4742105 C41.1949474,50.5836842 41.5493684,50.7082105 41.9845263,50.8477895 C42.3874993,50.9750423 42.7811775,51.1300445 43.1627368,51.3116842 C43.4899192,51.4655926 43.7939263,51.6645791 44.0658947,51.9028421 Z" id="Shape"></path>
            </g>
        </g>
    </g>
</svg>